<?xml version="1.0" encoding="UTF-8" standalone="no"?>
<svg width="500px" height="94px" viewBox="0 0 500 94" version="1.1" xmlns="http://www.w3.org/2000/svg" xmlns:xlink="http://www.w3.org/1999/xlink">
    <!-- Generator: Sketch 3.6.1 (26313) - http://www.bohemiancoding.com/sketch -->
    <title>logo_magma_4@2x</title>
    <desc>Created with Sketch.</desc>
    <defs></defs>
    <g id="Page-1" stroke="none" stroke-width="1" fill="none" fill-rule="evenodd">
        <g id="downloadables" transform="translate(-2186.000000, -188.000000)" fill="#000000">
            <g id="logo_magma_4" transform="translate(2186.000000, 188.000000)">
                <path d="M43.4129927,45.9231859 L34.7421898,30.8707016 L0.14,90.9418422 L17.4816058,90.9418422 L43.4129927,45.9231859 Z" id="Fill-50"></path>
                <path d="M86.8584672,60.9034078 L78.1365693,76.0454859 L86.7168613,90.9415484 L104.161387,90.9415484 L86.8584672,60.9034078 Z" id="Fill-52"></path>
                <path d="M69.7726277,30.8704078 L43.660219,76.2019078 L52.1507299,90.9415484 L52.4689781,90.9415484 L78.4222628,45.8861734 L69.7726277,30.8704078 Z" id="Fill-54"></path>
                <path d="M52.2157664,30.4576891 L60.7712409,15.5484078 L52.2157664,0.639860938 L43.660292,15.5484078 L52.2157664,30.4576891 Z" id="Fill-56"></path>
                <path d="M371.823504,52.5252172 L367.544672,52.5252172 L367.544672,91.6629984 L389.638102,91.6629984 L389.638102,87.3338578 L371.823504,87.3338578 L371.823504,52.5252172 Z" id="Fill-58"></path>
                <path d="M414.572847,60.3947797 L421.34292,77.8795141 L407.800584,77.8795141 L414.572847,60.3947797 Z M415.988175,52.5494516 L413.158978,52.5494516 L398.026861,91.6629984 L402.461898,91.6629984 L406.123942,82.2086547 L423.056058,82.2086547 L426.680146,91.6629984 L431.174307,91.6629984 L416.077956,52.7815141 L415.988175,52.5494516 Z" id="Fill-60"></path>
                <path d="M460.164818,85.2706313 C458.520292,86.6960531 456.564818,87.3893031 454.185985,87.3893031 L445.730511,87.3893031 L445.730511,72.1715844 L454.185985,72.1715844 C456.567007,72.1715844 458.561898,72.8501469 460.126861,74.1984594 C461.784526,75.5856938 462.591095,77.3658188 462.591095,79.6401781 C462.591095,81.8836938 461.798394,83.8789906 460.164818,85.2706313 L460.164818,85.2706313 Z M445.730511,56.8150687 L451.751679,56.8150687 C453.53562,56.8150687 454.997664,57.3372094 456.234891,58.42335 C456.246569,58.4328969 456.258248,58.4431781 456.269927,58.452725 C458.591095,60.4627094 458.629781,64.0560062 456.430511,66.1989125 C456.383796,66.2444437 456.33854,66.2877719 456.296204,66.3281625 C455.180146,67.3841937 453.795474,67.8975219 452.062628,67.8975219 L445.730511,67.8975219 L445.730511,56.8150687 Z M459.533431,68.9557563 C461.306423,67.2806469 462.204234,65.2552406 462.204234,62.471225 C462.204234,59.333975 461.175766,56.8326938 459.14438,55.0342094 C457.256788,53.3803969 454.717372,52.5417406 451.596204,52.5417406 L441.506423,52.5417406 L441.506423,91.6626313 L454.134891,91.6626313 C457.63854,91.6626313 460.649489,90.5610688 463.083796,88.3902563 C465.559708,86.2187094 466.815182,83.1225844 466.815182,79.6401781 C466.815182,76.7327875 465.94292,74.2307719 464.220292,72.2016938 C462.955328,70.7468969 461.381606,69.65635 459.533431,68.9557563 L459.533431,68.9557563 Z" id="Fill-62"></path>
                <path d="M496.602701,72.6496625 C495.815839,71.8616781 494.774964,71.0744281 493.50854,70.3099438 C492.285912,69.5748344 490.817299,68.8228344 489.146496,68.075975 C486.653066,66.9457719 484.925328,66.0211938 484.161095,65.4109281 C482.861095,64.2895375 482.229708,63.0315531 482.229708,61.5672094 C482.229708,59.897975 482.823869,58.5929906 484.047956,57.5736781 C485.218759,56.5815375 486.670584,56.0997875 488.486642,56.0997875 C490.226788,56.0997875 491.647226,56.4376 492.720219,57.1095531 C493.534088,57.5758813 494.250146,58.3124594 494.848686,59.2994594 L495.343577,60.1138813 L499.361825,58.3623969 L498.781533,57.3144438 C496.762555,53.670475 493.299781,51.8227875 488.486642,51.8227875 C485.566204,51.8227875 483.066934,52.7238656 481.064015,54.4951781 C478.963285,56.2760375 477.898321,58.6554125 477.898321,61.5672094 C477.898321,64.4738656 478.939197,66.8466313 480.985912,68.616475 C482.164015,69.6813188 484.249416,70.8754125 487.361825,72.2670531 C488.899051,72.9500219 490.177153,73.5713031 491.160365,74.1118031 C492.092482,74.6273344 492.783723,75.090725 493.220949,75.4961 C494.845766,76.9369438 495.635547,78.6943031 495.635547,80.8695219 C495.635547,83.1828031 494.985912,84.8689281 493.651606,86.0248344 C492.323139,87.1719281 490.426058,87.7535531 488.01365,87.7535531 C483.80635,87.7535531 481.232628,85.8199438 480.145036,81.8418344 L479.839197,80.7241156 L475.593212,82.1708344 L475.898321,83.1791313 C477.689562,89.0871781 481.766204,92.0826938 488.01365,92.0826938 C489.983723,92.0826938 491.732628,91.8139125 493.223869,91.2792875 C497.698321,89.60785 499.967664,86.10635 499.967664,80.8695219 C499.967664,77.6088969 498.835547,74.8432406 496.602701,72.6496625" id="Fill-64"></path>
                <path d="M142.070657,71.6924047 L125.298394,52.4818891 L122.718102,52.4818891 L122.718102,91.4221234 L130.458978,91.4221234 L130.458978,68.8364203 L142.070657,81.8164984 L153.681606,68.8364203 L153.707883,91.4221234 L161.448759,91.4221234 L161.448759,52.4818891 L158.868467,52.4818891 L142.070657,71.6924047 Z" id="Fill-66"></path>
                <path d="M185.910219,77.6631672 L191.793431,62.8655109 L197.521898,77.6631672 L185.910219,77.6631672 Z M187.716058,52.4821828 L172.235036,91.4224172 L180.491241,91.4224172 L182.813869,85.4512141 L200.359854,85.4512141 L202.682482,91.4224172 L210.913139,91.3959797 L195.457664,52.4821828 L187.716058,52.4821828 Z" id="Fill-68"></path>
                <path d="M289.926058,71.6924047 L273.153796,52.4818891 L270.573504,52.4818891 L270.573504,91.4221234 L278.315109,91.4221234 L278.315109,68.8364203 L289.926058,81.8164984 L301.537007,68.8364203 L301.563285,91.4221234 L309.304161,91.4221234 L309.304161,52.4818891 L306.723869,52.4818891 L289.926058,71.6924047 Z" id="Fill-70"></path>
                <path d="M331.576277,77.6631672 L337.459489,62.8655109 L343.187226,77.6631672 L331.576277,77.6631672 Z M333.382117,52.4821828 L317.900365,91.4224172 L326.157299,91.4224172 L328.479927,85.4512141 L346.025912,85.4512141 L348.34781,91.4224172 L356.579197,91.3959797 L341.122993,52.4821828 L333.382117,52.4821828 Z" id="Fill-72"></path>
                <path d="M239.936569,69.5420078 L239.936569,77.4857422 L250.83073,77.4857422 C248.714672,82.1548984 244.038029,85.4023047 238.605182,85.4023047 C231.185474,85.4023047 225.170876,79.3510547 225.170876,71.8861328 C225.170876,64.4212109 231.185474,58.3699609 238.605182,58.3699609 C243.074526,58.3699609 247.03146,60.5679453 249.473796,63.9460703 L255.760657,59.2475391 C251.591314,53.6427891 245.811022,50.3571953 238.579635,50.3571953 C223.117591,50.3571953 217.181825,64.8030859 217.181825,71.8861328 C217.181825,78.0100859 219.613212,83.1176641 223.540219,87.0671328 C227.43365,90.9850234 232.493504,93.4143359 238.579635,93.4143359 C244.958467,93.4143359 250.186204,90.8491641 254.113942,86.6668984 C261.465766,78.8076172 259.838759,69.5420078 259.838759,69.5420078 L239.936569,69.5420078 Z" id="Fill-74"></path>
            </g>
        </g>
    </g>
</svg>