<?xml version="1.0" standalone="no"?>
<!DOCTYPE svg PUBLIC "-//W3C//DTD SVG 20010904//EN"
 "http://www.w3.org/TR/2001/REC-SVG-20010904/DTD/svg10.dtd">
<svg version="1.0" xmlns="http://www.w3.org/2000/svg"
 width="260.000000pt" height="260.000000pt" viewBox="0 0 260.000000 260.000000"
 preserveAspectRatio="xMidYMid meet">
<metadata>
Created by potrace 1.11, written by Peter Selinger 2001-2013
</metadata>
<g transform="translate(0.000000,260.000000) scale(0.100000,-0.100000)"
fill="#000000" stroke="none">
<path d="M1365 2393 c-16 -9 -32 -19 -35 -22 -9 -11 -75 -66 -68 -57 8 9 -57
66 -76 66 -8 0 -8 -2 0 -8 7 -4 8 -15 3 -27 -4 -11 -8 -14 -8 -6 -1 8 -7 11
-16 7 -13 -5 -14 -2 -4 17 l12 22 -22 -20 c-22 -19 -24 -19 -53 -2 -37 21 -91
22 -108 2 -7 -8 -20 -15 -29 -15 -13 0 -13 -2 -2 -9 16 -10 -9 -29 -69 -55
-19 -8 -46 -27 -60 -43 l-25 -28 25 21 c14 12 31 24 37 28 19 10 4 -24 -21
-51 -65 -69 -62 -63 -40 -64 11 0 14 -3 6 -6 -7 -3 -18 0 -25 5 -10 8 -20 -4
-41 -51 -16 -34 -43 -82 -60 -107 -17 -25 -29 -45 -27 -45 2 0 -7 -17 -19 -38
-17 -29 -25 -35 -35 -27 -10 8 -15 8 -21 -1 -5 -8 -3 -9 6 -4 9 5 11 1 6 -16
-3 -13 -3 -19 0 -12 3 7 12 9 21 6 10 -4 14 -2 10 4 -4 5 6 21 20 34 l27 24
-17 -27 c-16 -26 -16 -27 0 -21 12 5 9 -4 -11 -29 -17 -23 -23 -39 -17 -43 6
-3 11 -1 11 5 0 6 5 8 11 4 8 -4 7 -9 -2 -15 -8 -5 -9 -9 -3 -9 6 0 19 9 29
20 10 11 25 20 34 20 11 0 7 -8 -13 -25 -34 -29 -43 -30 -65 -11 -10 9 -27 12
-44 9 -28 -6 -36 -19 -14 -26 6 -2 4 -3 -6 -1 -10 1 -21 -4 -24 -12 -3 -8 -9
-11 -14 -8 -5 3 -6 -3 -2 -13 6 -16 5 -17 -13 -3 -17 13 -18 13 -7 0 19 -25 5
-98 -21 -106 -56 -16 -61 -16 -51 -5 6 6 22 12 35 14 19 3 25 10 25 31 -1 14
3 26 8 26 5 0 -1 11 -14 25 -16 16 -34 24 -54 24 -29 -2 -29 -2 5 -8 l35 -6
-52 -14 c-29 -8 -50 -18 -48 -22 3 -4 -1 -7 -8 -6 -34 1 -47 -5 -48 -20 0 -10
-3 -13 -5 -6 -7 16 -54 -4 -54 -23 0 -7 -19 -13 -51 -16 -42 -2 -54 1 -65 17
-14 19 -14 19 -12 -4 2 -19 -4 -26 -31 -35 -33 -12 -33 -12 -10 -23 17 -8 19
-12 7 -12 -16 -1 -16 -6 -3 -47 11 -36 45 -19 45 22 0 19 5 34 11 34 7 0 9
-10 7 -25 -7 -32 19 -34 32 -2 9 21 9 21 9 -4 1 -25 -6 -29 -97 -62 l-97 -34
-3 -42 c-3 -40 -2 -41 17 -29 16 9 23 10 32 1 9 -9 16 -7 28 7 9 10 43 28 76
40 33 12 66 26 73 32 10 9 11 -4 5 -68 -4 -43 -7 -88 -7 -100 -1 -12 -7 -21
-16 -20 -8 1 -16 -8 -18 -19 -8 -49 -13 -65 -22 -65 -6 0 -10 16 -10 36 0 38
-22 45 -28 8 -3 -16 -1 -17 8 -4 9 12 10 9 5 -15 -3 -16 -8 -43 -11 -60 -3
-24 -2 -26 5 -10 8 19 9 19 13 -5 4 -21 6 -19 7 9 1 28 3 32 16 21 8 -6 19 -9
25 -5 5 3 10 -1 10 -9 0 -9 -7 -16 -15 -16 -9 0 -15 -9 -15 -21 0 -15 5 -20
18 -17 14 4 18 -3 20 -39 2 -33 -1 -45 -13 -50 -14 -5 -14 -8 -3 -15 8 -6 1
-7 -22 -3 -27 5 -32 4 -20 -5 12 -9 7 -10 -20 -5 -23 4 -30 3 -22 -3 17 -12
-39 -25 -65 -15 -11 4 -14 3 -9 -6 6 -8 1 -10 -16 -6 -21 5 -24 2 -26 -26 -2
-31 -2 -32 33 -26 l36 6 -5 -67 c-3 -37 -8 -101 -12 -143 -4 -44 -2 -79 3 -82
24 -15 31 15 36 158 4 116 8 151 18 153 11 2 13 -15 11 -80 -1 -46 -6 -90 -9
-98 -3 -8 -8 -39 -9 -68 -2 -41 0 -54 12 -59 9 -3 19 -1 23 5 3 5 6 76 6 156
0 118 3 146 14 146 12 0 13 -20 7 -117 -11 -196 -12 -187 14 -180 12 3 20 0
20 -7 0 -9 -34 -17 -100 -26 -55 -7 -100 -15 -100 -19 0 -4 17 -6 38 -5 l37 3
-35 -7 -35 -7 -3 -218 c-2 -214 -2 -218 17 -207 11 5 26 10 33 9 7 0 -2 -7
-19 -15 -29 -12 -33 -19 -33 -52 0 -27 3 -33 10 -22 6 9 10 10 10 3 0 -6 -5
-15 -10 -18 -6 -3 -10 -13 -10 -21 0 -12 175 -14 1300 -14 l1300 0 0 1064 0
1064 -112 -44 c-62 -25 -122 -49 -133 -54 -106 -44 -138 -52 -183 -46 -26 3
-54 1 -62 -4 -13 -9 -13 -10 0 -10 9 0 2 -8 -14 -19 -29 -20 -52 -19 -40 0 3
6 -3 13 -15 16 -12 3 -21 9 -21 14 0 5 -9 9 -20 9 -10 0 -24 9 -30 20 -6 11
-43 42 -84 69 -61 41 -76 57 -90 95 -10 25 -22 49 -28 52 -5 3 -3 -8 6 -24 22
-43 21 -55 -4 -42 -10 6 -27 32 -37 59 -9 27 -20 48 -24 46 -3 -2 -21 11 -39
30 -37 38 -24 49 14 13 13 -13 36 -34 51 -48 l29 -25 -21 30 c-12 17 -39 47
-61 68 -33 32 -47 39 -96 44 -36 4 -53 9 -44 14 7 5 -3 6 -23 3 -22 -4 -39 -2
-43 5 -10 16 -76 13 -111 -6z m274 -39 c13 -11 -8 -10 -34 2 l-30 13 30 -6
c17 -3 32 -7 34 -9z m-412 -10 c-3 -3 -12 -4 -19 -1 -8 3 -5 6 6 6 11 1 17 -2
13 -5z m-229 -442 c-19 -3 -78 16 -78 25 0 2 5 10 12 17 10 10 19 8 49 -13 31
-22 34 -27 17 -29z m62 41 c0 18 15 23 25 8 3 -6 -3 -15 -13 -20 -16 -8 -23
-6 -38 12 l-19 22 23 -19 c19 -17 22 -17 22 -3z m-280 -13 c0 -5 -4 -10 -9
-10 -6 0 -13 5 -16 10 -3 6 1 10 9 10 9 0 16 -4 16 -10z m320 -10 c-20 -13
-33 -13 -25 0 3 6 14 10 23 10 15 0 15 -2 2 -10z m-161 -16 c23 -11 47 -15 82
-11 49 5 51 5 63 -24 7 -17 17 -31 22 -32 5 -1 9 -13 9 -27 0 -14 4 -31 9 -38
10 -17 18 -81 11 -101 -3 -12 -18 -17 -47 -18 -24 -1 -52 -6 -63 -12 -11 -5
-42 -14 -69 -21 -27 -6 -56 -19 -64 -28 -9 -11 -11 -12 -6 -2 6 12 5 13 -7 3
-8 -6 -45 -17 -82 -24 -37 -7 -68 -16 -68 -21 -7 -43 -2 -67 13 -71 12 -4 19
3 23 23 9 43 30 53 100 54 69 1 79 -4 89 -46 5 -22 3 -28 -11 -29 -17 -1 -17
-2 0 -6 27 -7 20 -20 -29 -54 -52 -35 -48 -44 24 -55 45 -7 56 -29 27 -57 -8
-8 -11 -18 -7 -21 3 -4 0 -11 -8 -16 -11 -7 -6 -10 20 -11 19 -1 40 0 45 2 6
2 29 2 53 1 36 -2 42 1 42 17 0 12 17 30 45 48 29 18 48 39 55 61 7 17 16 32
21 32 5 0 9 8 9 18 0 10 7 27 16 38 14 18 15 17 11 -13 -2 -18 0 -33 5 -33 5
0 6 -5 3 -10 -4 -6 -11 -8 -16 -5 -17 11 -9 -4 12 -24 16 -14 22 -34 24 -71 2
-28 6 -54 8 -57 3 -2 1 -18 -5 -34 -6 -16 -8 -42 -5 -57 27 -126 26 -130 -15
-123 -5 0 -8 -8 -8 -18 0 -11 -4 -22 -9 -25 -7 -5 -2 -58 10 -91 6 -18 -21
-55 -41 -55 -10 0 -23 8 -28 17 -9 15 -13 14 -46 -11 -35 -26 -38 -27 -61 -12
-14 9 -25 12 -25 6 0 -5 -7 -10 -15 -10 -13 0 -20 18 -16 43 0 4 -4 7 -9 7 -6
0 -10 5 -10 11 0 6 6 9 14 6 9 -4 16 3 20 16 5 17 8 19 15 9 6 -10 10 -7 15
13 5 19 11 25 24 21 12 -4 24 6 41 34 14 22 27 38 29 35 2 -2 11 3 19 11 8 8
19 12 24 9 5 -4 19 1 30 9 l22 15 -27 7 c-37 9 -79 -3 -72 -22 4 -12 2 -12
-14 -4 -22 12 -25 41 -10 105 15 67 -29 92 -102 57 -36 -16 -64 -47 -32 -35
21 8 17 -21 -6 -42 -11 -10 -20 -26 -20 -35 0 -9 -7 -32 -16 -50 -22 -43 -27
-150 -8 -150 8 0 14 -10 15 -22 0 -21 1 -21 8 -4 12 31 21 -4 12 -45 -15 -68
7 -208 30 -194 5 4 9 1 9 -4 0 -6 7 -11 15 -11 8 0 15 7 15 16 0 8 3 13 8 11
4 -3 7 7 8 22 1 16 8 43 17 61 10 18 17 38 17 45 0 7 13 11 34 10 19 -1 33 2
30 7 -3 4 11 8 30 8 32 0 36 -3 37 -27 1 -16 0 -32 -1 -38 -1 -5 -3 -23 -3
-40 -1 -16 -7 -36 -14 -43 -7 -7 -13 -20 -13 -28 0 -20 20 -17 21 4 0 12 3 10
10 -7 5 -14 9 -32 8 -40 -1 -9 0 -18 1 -21 6 -18 4 -160 -3 -160 -5 0 -5 -10
-2 -22 5 -18 4 -20 -4 -8 -7 10 -11 11 -11 3 0 -7 -7 -13 -15 -13 -13 0 -20
-18 -16 -42 3 -18 -80 -17 -119 0 -19 8 -41 16 -47 18 -19 3 -25 -13 -8 -20 8
-3 15 -14 15 -24 0 -10 10 -28 21 -41 23 -24 27 -58 14 -104 -5 -18 -3 -27 4
-27 6 0 11 -4 11 -9 0 -15 -61 -6 -111 16 -26 12 -69 43 -97 69 -60 58 -77
107 -61 169 19 70 3 188 -41 290 -21 50 -50 128 -64 175 -15 46 -32 90 -38 98
-16 19 -17 443 -1 495 9 28 9 37 0 37 -7 0 -13 19 -13 48 -1 33 0 40 5 22 l7
-25 16 30 c9 17 18 45 21 64 3 19 10 38 16 44 6 6 11 17 11 25 0 12 -3 12 -17
1 -10 -7 -8 -2 5 12 12 14 22 31 22 38 0 17 58 104 76 114 8 4 14 13 14 20 0
9 40 42 56 47 0 0 15 -7 33 -16z m-172 -20 c-3 -3 -12 -4 -19 -1 -8 3 -5 6 6
6 11 1 17 -2 13 -5z m-42 -44 c4 -6 3 -9 -2 -8 -14 4 -53 -13 -53 -23 0 -6 -4
-7 -10 -4 -18 11 -11 21 23 32 17 5 33 11 34 12 1 0 5 -4 8 -9z m-69 -83 c17
6 17 5 5 -10 -13 -16 -11 -16 23 -2 20 8 36 13 36 10 0 -3 -13 -11 -30 -16
-16 -6 -27 -15 -24 -20 3 -5 15 -4 27 2 13 7 9 -1 -12 -20 -19 -17 -37 -28
-40 -25 -3 4 0 9 7 11 26 10 12 33 -19 33 -28 0 -30 2 -18 17 11 13 11 17 1
20 -6 3 -9 10 -6 15 5 7 11 5 19 -6 8 -11 19 -14 31 -9z m-106 -47 c0 -5 -5
-10 -11 -10 -5 0 -7 5 -4 10 3 6 8 10 11 10 2 0 4 -4 4 -10z m-166 -55 c-4 -8
-10 -15 -16 -15 -5 0 -7 4 -3 9 3 5 -3 12 -12 14 -11 3 -8 5 9 6 20 1 26 -3
22 -14z m280 -2 c-7 -2 -10 -14 -7 -26 4 -20 3 -20 -7 -4 -6 9 -19 17 -28 17
-10 1 -5 6 13 14 17 7 32 11 35 8 3 -3 0 -7 -6 -9z m-129 -3 c3 -5 1 -10 -4
-10 -6 0 -11 5 -11 10 0 6 2 10 4 10 3 0 8 -4 11 -10z m-190 -71 c-27 -10 -59
-22 -70 -25 -18 -6 -18 -5 -3 10 9 9 34 20 55 25 63 15 71 11 18 -10z m652
-15 c-3 -3 -12 -4 -19 -1 -8 3 -5 6 6 6 11 1 17 -2 13 -5z m253 -4 c0 -5 -2
-10 -4 -10 -3 0 -8 5 -11 10 -3 6 -1 10 4 10 6 0 11 -4 11 -10z m-100 -10 c20
-6 21 -8 5 -8 -11 0 -33 4 -50 8 -27 7 -27 8 -5 8 14 0 36 -4 50 -8z m-910
-10 c-20 -13 -33 -13 -25 0 3 6 14 10 23 10 15 0 15 -2 2 -10z m984 -16 c9 -8
16 -21 16 -27 0 -29 -13 -57 -26 -57 -14 0 -18 11 -15 43 1 9 -3 17 -8 17 -6
0 -11 9 -11 20 0 24 22 26 44 4z m-583 -31 c13 -16 12 -17 -3 -4 -10 7 -18 15
-18 17 0 8 8 3 21 -13z m-174 -75 c-2 -18 -4 -6 -4 27 0 33 2 48 4 33 2 -15 2
-42 0 -60z m1820 40 c-3 -7 -5 -2 -5 12 0 14 2 19 5 13 2 -7 2 -19 0 -25z
m-1926 -94 c-1 -54 -4 -100 -6 -103 -3 -2 -5 44 -5 104 0 60 3 106 6 102 3 -3
6 -50 5 -103z m264 66 c4 -6 10 -8 15 -5 5 3 2 -8 -7 -25 -11 -23 -18 -28 -28
-20 -9 8 -14 6 -19 -6 -8 -22 -8 -79 2 -88 4 -4 7 -11 8 -14 0 -4 6 -18 12
-32 l11 -25 1 25 c1 37 26 115 32 99 5 -16 3 -68 -5 -115 -3 -17 1 -60 9 -95
7 -35 13 -92 14 -126 0 -52 -3 -61 -15 -56 -32 12 -46 58 -39 133 6 65 5 74
-26 136 -29 59 -32 73 -27 126 6 71 42 121 62 88z m353 -32 c-2 -18 -9 -22
-27 -20 -31 3 -33 5 -25 26 3 9 17 16 31 16 20 0 24 -4 21 -22z m1379 -90 c-2
-24 -4 -7 -4 37 0 44 2 63 4 43 2 -21 2 -57 0 -80z m-70 10 c-2 -18 -4 -4 -4
32 0 36 2 50 4 33 2 -18 2 -48 0 -65z m-1820 30 c-3 -7 -5 -2 -5 12 0 14 2 19
5 13 2 -7 2 -19 0 -25z m1870 -35 c-3 -10 -5 -4 -5 12 0 17 2 24 5 18 2 -7 2
-21 0 -30z m240 -75 c-3 -8 -6 -5 -6 6 -1 11 2 17 5 13 3 -3 4 -12 1 -19z
m-2360 -20 c-3 -7 -5 -2 -5 12 0 14 2 19 5 13 2 -7 2 -19 0 -25z m154 -39
c-22 -9 -25 -4 -10 22 12 23 12 23 19 4 5 -14 2 -22 -9 -26z m74 21 c-28 -12
-47 -12 -40 0 3 6 18 10 33 9 24 0 25 -1 7 -9z m-225 -15 c0 -8 -7 -15 -15
-15 -13 0 -14 3 -3 15 16 18 18 18 18 0z m60 -25 c-8 -5 -19 -10 -25 -10 -5 0
-3 5 5 10 8 5 20 10 25 10 6 0 3 -5 -5 -10z m2077 -32 c-3 -7 -5 -2 -5 12 0
14 2 19 5 13 2 -7 2 -19 0 -25z m-260 -25 c-3 -10 -5 -2 -5 17 0 19 2 27 5 18
2 -10 2 -26 0 -35z m152 10 c-6 -7 -17 -13 -23 -12 -7 0 -6 2 2 6 6 2 10 8 8
12 -3 4 1 8 9 8 11 0 12 -4 4 -14z m-69 -25 c0 -19 -16 -5 -17 14 -2 18 0 20
7 8 5 -8 10 -18 10 -22z m80 2 c0 -5 -8 -10 -17 -10 -15 0 -16 2 -3 10 19 12
20 12 20 0z m-2050 -160 c0 -5 -5 -10 -11 -10 -5 0 -7 5 -4 10 3 6 8 10 11 10
2 0 4 -4 4 -10z m1086 -66 c-13 -14 -26 -8 -26 12 0 8 5 12 10 9 6 -3 10 2 11
12 0 16 1 16 8 -2 5 -11 3 -24 -3 -31z m-96 -4 c0 -5 -10 -10 -22 -10 -19 0
-20 2 -8 10 19 13 30 13 30 0z m-523 -32 c-3 -8 -6 -5 -6 6 -1 11 2 17 5 13 3
-3 4 -12 1 -19z m-470 -50 c-2 -13 -4 -5 -4 17 -1 22 1 32 4 23 2 -10 2 -28 0
-40z m-10 -194 c-3 -3 -12 -4 -19 -1 -8 3 -5 6 6 6 11 1 17 -2 13 -5z m-69
-11 c-10 -2 -26 -2 -35 0 -10 3 -2 5 17 5 19 0 27 -2 18 -5z m68 -89 c-4 -15
-14 -24 -26 -24 -17 0 -20 -7 -20 -40 0 -22 -5 -40 -11 -40 -6 0 -9 14 -6 35
l5 35 -60 0 c-51 0 -59 2 -54 16 3 9 6 28 6 42 0 26 2 27 58 27 31 0 60 -4 64
-10 5 -6 14 -3 25 8 17 17 18 17 21 -4 2 -11 1 -32 -2 -45z m-153 -131 c-4
-115 -23 -136 -23 -26 0 45 3 88 6 97 14 36 20 11 17 -71z m55 43 c1 -24 -2
-55 -7 -68 l-10 -23 0 25 c-1 14 -4 44 -7 68 -5 32 -3 42 7 42 9 0 15 -15 17
-44z m716 -2 c-8 -18 -12 -47 -10 -63 2 -17 2 -31 1 -31 -2 0 -10 -3 -19 -6
-9 -3 -16 -1 -16 6 0 6 5 8 10 5 6 -3 10 1 10 10 0 9 -4 13 -10 10 -17 -10
-11 18 10 53 11 18 18 37 16 41 -3 4 1 8 8 8 11 0 11 -6 0 -33z m-74 -22 c-13
-9 -37 -25 -54 -35 -30 -18 -30 -18 -8 0 13 10 35 28 50 40 15 12 29 19 31 17
3 -2 -6 -12 -19 -22z m-590 -22 c0 -5 -5 -10 -11 -10 -5 0 -7 5 -4 10 3 6 8
10 11 10 2 0 4 -4 4 -10z m560 -55 c-4 -19 -6 -35 -3 -35 2 0 1 -5 -3 -12 -5
-7 -10 -4 -16 11 -5 15 -3 30 8 47 22 32 23 31 14 -11z m-70 10 c0 -9 -6 -12
-16 -8 -13 5 -13 7 -2 14 17 11 18 11 18 -6z m-550 -21 c0 -8 -5 -12 -10 -9
-6 4 -8 11 -5 16 9 14 15 11 15 -7z m471 -8 c-13 -7 -20 -15 -14 -17 5 -2 -3
-33 -19 -68 -16 -35 -31 -61 -34 -58 -3 3 -1 13 4 24 33 63 43 98 31 102 -12
4 27 30 46 30 6 0 -1 -6 -14 -13z m-131 -11 c0 -3 -17 -12 -37 -20 -21 -9 -40
-19 -43 -24 -3 -4 -20 -11 -39 -15 -45 -8 -40 -5 44 32 78 35 75 34 75 27z
m359 -104 c11 -47 19 -87 16 -89 -5 -5 -6 -4 -35 82 -11 33 -20 73 -20 90 1
45 14 17 39 -83z m-75 24 c-4 -8 -8 -15 -10 -15 -2 0 -4 7 -4 15 0 8 4 15 10
15 5 0 7 -7 4 -15z m-624 -25 c0 -11 -4 -20 -9 -20 -5 0 -7 9 -4 20 3 11 7 20
9 20 2 0 4 -9 4 -20z m65 0 c-11 -5 -27 -9 -35 -9 -9 0 -8 4 5 9 11 5 27 9 35
9 9 0 8 -4 -5 -9z m962 -6 c-3 -3 -12 -4 -19 -1 -8 3 -5 6 6 6 11 1 17 -2 13
-5z"/>
<path d="M1095 960 c-3 -5 -1 -10 4 -10 6 0 11 5 11 10 0 6 -2 10 -4 10 -3 0
-8 -4 -11 -10z"/>
<path d="M899 2313 c-13 -16 -12 -17 4 -4 9 7 17 15 17 17 0 8 -8 3 -21 -13z"/>
<path d="M2057 2034 c4 -25 2 -39 -8 -46 -11 -8 -10 -9 4 -4 10 3 29 6 42 6
17 0 24 7 28 27 8 40 -2 53 -38 53 -33 0 -34 -1 -28 -36z"/>
<path d="M567 1853 c-4 -3 -7 -15 -7 -26 0 -25 9 -17 15 12 4 22 2 25 -8 14z"/>
<path d="M595 1820 c-16 -7 -17 -9 -3 -9 9 -1 20 4 23 9 7 11 7 11 -20 0z"/>
<path d="M5 1780 c3 -5 8 -10 11 -10 2 0 4 5 4 10 0 6 -5 10 -11 10 -5 0 -7
-4 -4 -10z"/>
<path d="M50 1723 c0 -15 -2 -16 -10 -3 -16 25 -28 2 -36 -70 l-3 -35 8 33 c5
18 20 43 35 57 28 26 32 35 16 35 -5 0 -10 -8 -10 -17z"/>
<path d="M265 1700 c-3 -6 1 -7 9 -4 18 7 21 14 7 14 -6 0 -13 -4 -16 -10z"/>
<path d="M84 1629 c-3 -6 -1 -16 5 -22 8 -8 11 -6 11 7 0 10 4 14 12 10 7 -4
8 -3 4 4 -9 15 -23 15 -32 1z"/>
<path d="M46 1618 c3 -4 9 -8 15 -8 5 0 9 4 9 8 0 5 -7 9 -15 9 -8 0 -12 -4
-9 -9z"/>
<path d="M0 1256 c0 -9 7 -17 15 -17 8 -1 20 -3 25 -4 6 -1 16 -3 24 -4 17 -1
27 -141 11 -153 -5 -4 0 -8 12 -8 15 0 21 5 19 18 -2 9 0 49 4 87 4 39 4 73 1
77 -3 4 -30 10 -58 14 -45 6 -53 4 -53 -10z"/>
<path d="M8 1205 c-10 -16 -7 -168 3 -158 6 6 9 45 7 89 -2 43 -6 75 -10 69z"/>
<path d="M130 1097 c0 -10 8 -17 18 -17 9 0 13 4 7 8 -5 4 -13 11 -17 16 -5 5
-8 2 -8 -7z"/>
<path d="M4 780 c0 -58 1 -81 3 -52 2 28 2 76 0 105 -2 28 -3 5 -3 -53z"/>
</g>
</svg>
